<svg id="Layer_1" data-name="Layer 1" xmlns="http://www.w3.org/2000/svg" viewBox="0 0 201.5 178.95"><defs><style>.cls-1{fill:#e0632d;}.cls-2{fill:#fff;}.cls-3{fill:none;stroke:#424143;stroke-miterlimit:10;stroke-width:1.5px;}.cls-4{fill:#424143;}.cls-5{fill:#fbda73;}</style></defs><title>PookisMahi Private Label Kona Coffee Delivery Status Icons SVG</title><g id="Delivery_Confirmation" data-name="Delivery Confirmation"><path id="_Path_" data-name="&lt;Path&gt;" class="cls-1" d="M210.7,127.48a6,6,0,0,0-5.35-3.84H171.59v53.15a18,18,0,0,1,18,18h31.81V159.19Z" transform="translate(-23.99 -31.93)"/><path id="_Path_2" data-name="&lt;Path&gt;" class="cls-2" d="M183.6,155.26h29.24a16,16,0,0,1,4,.6l4.76,1.48L210.7,127.48s-1.14-5.36-10.31-3.84H179.54v27.57A4.06,4.06,0,0,0,183.6,155.26Z" transform="translate(-23.99 -31.93)"/><path id="_Path_3" data-name="&lt;Path&gt;" class="cls-2" d="M109.05,197.56A12.56,12.56,0,1,1,96.49,185,12.56,12.56,0,0,1,109.05,197.56Z" transform="translate(-23.99 -31.93)"/><path id="_Path_4" data-name="&lt;Path&gt;" class="cls-3" d="M109.05,197.56A12.56,12.56,0,1,1,96.49,185,12.56,12.56,0,0,1,109.05,197.56Z" transform="translate(-23.99 -31.93)"/><circle id="_Path_5" data-name="&lt;Path&gt;" class="cls-4" cx="72.5" cy="165.64" r="4.96"/><path id="_Path_6" data-name="&lt;Path&gt;" class="cls-2" d="M181.57,197.56A12.56,12.56,0,1,1,169,185,12.56,12.56,0,0,1,181.57,197.56Z" transform="translate(-23.99 -31.93)"/><path id="_Path_7" data-name="&lt;Path&gt;" class="cls-3" d="M181.57,197.56A12.56,12.56,0,1,1,169,185,12.56,12.56,0,0,1,181.57,197.56Z" transform="translate(-23.99 -31.93)"/><circle id="_Path_8" data-name="&lt;Path&gt;" class="cls-4" cx="145.02" cy="165.64" r="4.96"/><path id="_Path_9" data-name="&lt;Path&gt;" class="cls-2" d="M75.83,197.56A12.56,12.56,0,1,1,63.28,185,12.56,12.56,0,0,1,75.83,197.56Z" transform="translate(-23.99 -31.93)"/><path id="_Path_10" data-name="&lt;Path&gt;" class="cls-3" d="M75.83,197.56A12.56,12.56,0,1,1,63.28,185,12.56,12.56,0,0,1,75.83,197.56Z" transform="translate(-23.99 -31.93)"/><circle id="_Path_11" data-name="&lt;Path&gt;" class="cls-4" cx="39.28" cy="165.64" r="4.96"/><line id="_Path_12" data-name="&lt;Path&gt;" class="cls-3" x1="136.8" y1="155.27" x2="92.07" y2="155.27"/><path id="_Path_13" data-name="&lt;Path&gt;" class="cls-3" d="M43.46,192.73h0A15.34,15.34,0,0,1,58.8,177.4H101a15.33,15.33,0,0,1,15.33,15.33V196" transform="translate(-23.99 -31.93)"/><rect id="_Path_14" data-name="&lt;Path&gt;" class="cls-5" x="15.36" y="57.68" width="121.63" height="80.56" rx="4.9" ry="4.9"/><path id="_Path_15" data-name="&lt;Path&gt;" class="cls-3" d="M124.16,89.6h31.93a4.9,4.9,0,0,1,4.9,4.9v70.76a4.9,4.9,0,0,1-4.9,4.9H44.25a4.9,4.9,0,0,1-4.9-4.9V125.68" transform="translate(-23.99 -31.93)"/><rect id="_Path_16" data-name="&lt;Path&gt;" class="cls-2" x="27.12" y="77.61" width="98.11" height="36.94"/><line id="_Path_17" data-name="&lt;Path&gt;" class="cls-3" x1="179.94" y1="91.21" x2="151.57" y2="67.24"/><line id="_Path_18" data-name="&lt;Path&gt;" class="cls-3" x1="160.86" y1="75.76" x2="160.86" y2="88.76"/><path id="_Path_19" data-name="&lt;Path&gt;" class="cls-3" d="M210.7,127.48a6,6,0,0,0-5.35-3.84H171.59v53.15a18,18,0,0,1,18,18h31.81V159.19Z" transform="translate(-23.99 -31.93)"/><path id="_Path_20" data-name="&lt;Path&gt;" class="cls-2" d="M224.74,194.45a1.5,1.5,0,0,1-1.5,1.51H209a1.51,1.51,0,0,1-1.51-1.51v-8.13a1.51,1.51,0,0,1,1.51-1.51h14.23a1.5,1.5,0,0,1,1.5,1.51Z" transform="translate(-23.99 -31.93)"/><path id="_Path_21" data-name="&lt;Path&gt;" class="cls-3" d="M224.74,194.45a1.5,1.5,0,0,1-1.5,1.51H209a1.51,1.51,0,0,1-1.51-1.51v-8.13a1.51,1.51,0,0,1,1.51-1.51h14.23a1.5,1.5,0,0,1,1.5,1.51Z" transform="translate(-23.99 -31.93)"/><line id="_Path_22" data-name="&lt;Path&gt;" class="cls-3" x1="85.61" y1="88.76" x2="118.15" y2="88.76"/><line id="_Path_23" data-name="&lt;Path&gt;" class="cls-3" x1="34.21" y1="102.89" x2="118.15" y2="102.89"/><g id="_Group_" data-name="&lt;Group&gt;"><circle id="_Path_24" data-name="&lt;Path&gt;" class="cls-2" cx="47.25" cy="47.25" r="46.5"/><path id="_Path_25" data-name="&lt;Path&gt;" class="cls-3" d="M103.72,45.89A46.34,46.34,0,1,1,83.92,34.43" transform="translate(-23.99 -31.93)"/><path id="_Path_26" data-name="&lt;Path&gt;" class="cls-3" d="M88.94,36.16a46.45,46.45,0,0,1,10.72,6.21" transform="translate(-23.99 -31.93)"/><circle id="_Path_27" data-name="&lt;Path&gt;" class="cls-1" cx="47.25" cy="47.25" r="24.28"/><circle id="_Path_28" data-name="&lt;Path&gt;" class="cls-3" cx="47.25" cy="47.25" r="2.28"/><line id="_Path_29" data-name="&lt;Path&gt;" class="cls-3" x1="47.25" y1="4.74" x2="47.25" y2="12.82"/><line id="_Path_30" data-name="&lt;Path&gt;" class="cls-3" x1="68.54" y1="10.46" x2="64.49" y2="17.45"/><line id="_Path_31" data-name="&lt;Path&gt;" class="cls-3" x1="84.11" y1="26.07" x2="77.1" y2="30.1"/><line id="_Path_32" data-name="&lt;Path&gt;" class="cls-3" x1="89.76" y1="47.38" x2="81.68" y2="47.36"/><line id="_Path_33" data-name="&lt;Path&gt;" class="cls-3" x1="83.97" y1="68.66" x2="76.99" y2="64.59"/><line id="_Path_34" data-name="&lt;Path&gt;" class="cls-3" x1="68.33" y1="84.22" x2="64.34" y2="77.19"/><line id="_Path_35" data-name="&lt;Path&gt;" class="cls-3" x1="46.99" y1="89.82" x2="47.06" y2="81.74"/><line id="_Path_36" data-name="&lt;Path&gt;" class="cls-3" x1="25.72" y1="83.96" x2="29.84" y2="77"/><line id="_Path_37" data-name="&lt;Path&gt;" class="cls-3" x1="10.27" y1="68.2" x2="17.32" y2="64.26"/><line id="_Path_38" data-name="&lt;Path&gt;" class="cls-3" x1="4.75" y1="46.86" x2="12.83" y2="46.93"/><line id="_Path_39" data-name="&lt;Path&gt;" class="cls-3" x1="10.66" y1="25.62" x2="17.62" y2="29.73"/><line id="_Path_40" data-name="&lt;Path&gt;" class="cls-3" x1="26.42" y1="10.2" x2="30.38" y2="17.24"/><g id="_Group_2" data-name="&lt;Group&gt;"><g id="_Group_3" data-name="&lt;Group&gt;"><polygon id="_Path_41" data-name="&lt;Path&gt;" class="cls-4" points="43.85 47.38 45.25 18.79 49.25 18.79 50.65 47.38 43.85 47.38"/></g></g><g id="_Group_4" data-name="&lt;Group&gt;"><g id="_Group_5" data-name="&lt;Group&gt;"><polygon id="_Path_42" data-name="&lt;Path&gt;" class="cls-4" points="47.16 43.98 72.37 44.74 72.47 48.73 47.34 50.78 47.16 43.98"/></g></g></g></g></svg>